<svg xmlns="http://www.w3.org/2000/svg" viewBox="0 0 26 31"><defs><style>.cls-1{fill:#747474;}</style></defs><title>lock.svg</title><g id="Layer_2" data-name="Layer 2"><g id="Layer_1-2" data-name="Layer 1"><path class="cls-1" d="M25.19,10.66H23.24v-5A5.67,5.67,0,0,0,17.55,0H8.45A5.67,5.67,0,0,0,2.76,5.65v5H.81a.81.81,0,0,0-.81.81V30.19A.81.81,0,0,0,.81,31H25.19a.81.81,0,0,0,.81-.81V11.46A.81.81,0,0,0,25.19,10.66Zm-19.5-5A2.76,2.76,0,0,1,8.45,2.91h9.1a2.76,2.76,0,0,1,2.76,2.74v5H5.69ZM15.07,25h-4l.68-4.81a2.57,2.57,0,0,1,1.14-4.88h.18a2.57,2.57,0,0,1,1.28,4.81Z"/></g></g></svg>