<svg id="Layer_1" data-name="Layer 1" xmlns="http://www.w3.org/2000/svg" xmlns:xlink="http://www.w3.org/1999/xlink" viewBox="0 0 464 84"><defs><style>.cls-1{fill:url(#linear-gradient);}.cls-2{fill:#fff;}.cls-3{fill:none;stroke:#3e7191;stroke-miterlimit:10;}.cls-4{fill:#3e7191;}</style><linearGradient id="linear-gradient" x1="-441.57" y1="483.25" x2="-441.57" y2="482.25" gradientTransform="matrix(464, 0, 0, -84, 205119, 40593)" gradientUnits="userSpaceOnUse"><stop offset="0" stop-color="#294461"/><stop offset="0.5" stop-color="#20354a"/><stop offset="0.5" stop-color="#162534"/><stop offset="1" stop-color="#080e13"/></linearGradient></defs><title>submit</title><rect class="cls-1" width="464" height="84" rx="9" ry="9"/><path class="cls-2" d="M272.8,55.67c-4.78,0-8.34-3.06-8.34-7.71V34.17c0-4.58,3.56-7.71,8.34-7.71s7.47,3,7.47,7.3v3.69h-5.66V33.66A1.62,1.62,0,0,0,273,32h-.24A1.59,1.59,0,0,0,271,33.66V48.42a1.58,1.58,0,0,0,1.48,1.68h.28a1.62,1.62,0,0,0,1.8-1.67V44.64h5.66v3.69C280.27,52.71,277.41,55.67,272.8,55.67Z"/><path class="cls-2" d="M290.7,55.67c-4.58,0-8.1-2.93-8.1-7.3V33.78c0-4.32,3.52-7.25,8.1-7.25s8,2.93,8,7.25V48.37C298.76,52.71,295.24,55.67,290.7,55.67Zm1.46-22.24A1.36,1.36,0,0,0,290.84,32h-.13a1.4,1.4,0,0,0-1.5,1.3s0,.06,0,.09V48.78a1.4,1.4,0,0,0,1.41,1.39h.09a1.36,1.36,0,0,0,1.46-1.25s0-.09,0-.13Z"/><path class="cls-2" d="M312.76,55l-3.95-10.28-1.59-3.95V55h-5.69V27.11h5.71l3.69,10.4,1.5,4V27.11h5.66V55Z"/><path class="cls-2" d="M331,32.65V55h-6.43V32.65h-4.52V27.11H335.6v5.54Z"/><path class="cls-2" d="M337.52,55V27.11h6.43V55Z"/><path class="cls-2" d="M358.22,55l-3.95-10.28-1.59-3.95V55H347V27.11h5.71l3.69,10.4,1.5,4V27.11h5.66V55Z"/><path class="cls-2" d="M374.36,55.67c-4.49,0-7.93-3.06-7.93-6.92V27.11h6.5V48.74a1.35,1.35,0,0,0,1.31,1.39h.12a1.38,1.38,0,0,0,1.5-1.39V27.11h6.21V48.74C382.07,52.61,378.94,55.67,374.36,55.67Z"/><path class="cls-2" d="M385,55V27.11h13.68v5.41h-7.19V38.3h4.69v4.82h-4.69v6.21h7.21V55Z"/><path class="cls-2" d="M49.86,55.67C45,55.67,42,53,42,48.42v-2H47.6v2a1.9,1.9,0,0,0,1.69,2.09h.28c1.29,0,1.85-.76,1.85-2.1,0-2-1.68-3.45-3.78-5.37-2.57-2.1-5.49-4.86-5.49-8.68a7.49,7.49,0,0,1,7.93-7.84,7,7,0,0,1,7.21,6.69q0,.26,0,.52v1.8H51.67v-2a1.61,1.61,0,0,0-1.4-1.79h-.19a1.71,1.71,0,0,0-1.73,1.69q0,.08,0,.16c0,2.22,1.68,3.36,3.86,5.37,2.57,2.3,5.45,4.95,5.45,8.9a7.46,7.46,0,0,1-7.07,7.83q-.37,0-.73,0Z"/><path class="cls-2" d="M67.9,55.67c-4.49,0-7.93-3.06-7.93-6.92V27.11h6.5V48.74a1.35,1.35,0,0,0,1.31,1.39h.12a1.38,1.38,0,0,0,1.5-1.39V27.11H75.6V48.74C75.61,52.61,72.46,55.67,67.9,55.67Z"/><path class="cls-2" d="M87.9,55H78.55V27.11H87.9c3.1,0,5.88,1.8,5.88,5.62v3.73a4,4,0,0,1-3.1,4.36,4.08,4.08,0,0,1,3.1,4.36V49.4C93.76,53.24,91,55,87.9,55Zm-.17-21.52c0-1-.42-1.29-1.13-1.29H85v6.67H86.6c.71,0,1.13-.42,1.13-1.29Zm0,11.07c0-.93-.42-1.29-1.13-1.29H85v6.75H86.6c.71,0,1.13-.37,1.13-1.28Z"/><path class="cls-2" d="M112.46,55V36.26l-1.13,6.88L109.23,55h-4l-1.93-11.9-1-6.88V55.05H96.54V27.11H105L107,38l.67,4.91.67-4.91,1.93-10.94h8.38V55Z"/><path class="cls-2" d="M121.64,55V27.11h6.43V55Z"/><path class="cls-2" d="M141.06,32.65V55h-6.43V32.65h-4.52V27.11h15.55v5.54Z"/><path class="cls-2" d="M160.4,32.28V38.4h4.69v5.14H160.4V55H154V27.11h13.25v5.14Z"/><path class="cls-2" d="M177.08,55.67c-4.58,0-8.1-2.93-8.1-7.3V33.78c0-4.32,3.52-7.25,8.1-7.25s8,2.93,8,7.25V48.37C185.13,52.72,181.61,55.67,177.08,55.67Zm1.46-22.24A1.36,1.36,0,0,0,177.21,32h-.13a1.4,1.4,0,0,0-1.52,1.26s0,.08,0,.12V48.78A1.4,1.4,0,0,0,177,50.17h.09a1.36,1.36,0,0,0,1.46-1.26s0-.09,0-.13Z"/><path class="cls-2" d="M198.69,55c-1,0-1.52-2.43-1.52-4.32V45.58A1.49,1.49,0,0,0,195.8,44h-1.47V55h-6.43V27.11h9a5.88,5.88,0,0,1,6.2,5.53q0,.17,0,.34v4.86a4.27,4.27,0,0,1-2.57,3.69,4.37,4.37,0,0,1,2.73,3.73V50.4a14.52,14.52,0,0,0,.8,4.53v.13ZM197,33.53c0-1-.37-1.29-1.09-1.29h-1.59v7.21h1.59c.71,0,1.09-.37,1.09-1.29Z"/><path class="cls-2" d="M222,55V36.26l-1.13,6.88L218.81,55h-4l-1.93-11.9-1-6.88V55.05h-5.75V27.11h8.47l2,10.94.67,4.91.67-4.91,1.93-10.94h8.39V55Z"/><path class="cls-2" d="M240.8,47.16l-.23-2.38-1.45.39-.28,2.57-1.52.41,1.68-13,1.81-.49,1.68,12.15ZM239.92,38l-.6,5.57,1.09-.3Z"/><path class="cls-2" d="M247.06,45.49l-1.77-5.55-.51-1.73v7.9l-1.49.4V33.91l1.55-.41,1.58,5.63.48,1.76V32.94l1.48-.4v12.6Z"/><path class="cls-2" d="M252.17,44.12l-2.49.67V32.15l2.49-.67c1.41-.39,2.3.26,2.3,2v7.38A3,3,0,0,1,252.17,44.12Zm.64-10.19c0-.68-.21-1-.75-.81l-.73.19v9.47l.73-.19c.53-.14.75-.51.75-1.2Z"/><line class="cls-3" x1="237.24" y1="52.56" x2="255.83" y2="47.57"/><path class="cls-4" d="M437.44,41.45h0L426.5,52.39V48.18l6.72-6.72-6.72-6.73V30.51Z"/><path class="cls-4" d="M428,41.45h0L417.07,52.39V48.18l6.72-6.72-6.72-6.73V30.51Z"/></svg>