<svg id="Layer_1" data-name="Layer 1" xmlns="http://www.w3.org/2000/svg" viewBox="0 0 410 82"><defs><style>.cls-1{fill:#294461;}</style></defs><title>thank-you</title><path id="thank-you.svg" class="cls-1" d="M352,61V6h17V61c0,2.28,1,4,3,4a3.91,3.91,0,0,0,4-3.81h0V6h16V61c0,9.79-8.26,18-20,18C360.58,79,352,70.79,352,61Zm-47-1V23c0-10.77,8.26-18,20-18,11.42,0,21,7.23,21,18V60c0,11.09-9.58,19-21,19-11.74,0-20-7.91-20-19Zm16-38V61c0,2.28,2,3,4,3s4-.72,4-3V22a4,4,0,0,0-8,0ZM272,77V48L258,6h17l6,25,6-25h17L289,48V77Zm-48,0-6-27-3,9V77H198V6h17V37l9-31h16L230,36l11,41Zm-47,0L167,51l-4-10V77H149V6h14l9,27,4,10V6h15V77Zm-49,0-1-11H117l-2,11H101L113,6h19l12,71Zm-9-23h6l-2-26ZM80,77V50H71V77H55V6H71V36h9V6H97V77ZM21,77V20H10V6H49V20H38V77Z"/></svg>